<svg xmlns="http://www.w3.org/2000/svg" xmlns:xlink="http://www.w3.org/1999/xlink" width="500" zoomAndPan="magnify" viewBox="0 0 375 374.999991" height="500" preserveAspectRatio="xMidYMid meet" version="1.0"><defs><filter x="0%" y="0%" width="100%" height="100%" id="id1"><feColorMatrix values="0 0 0 0 1 0 0 0 0 1 0 0 0 0 1 0 0 0 1 0" color-interpolation-filters="sRGB"/></filter><mask id="id2"><g filter="url(#id1)"><rect x="-37.5" width="450" fill="#000000" y="-37.499999" height="449.999989" fill-opacity="0.298"/></g></mask><clipPath id="id3"><path d="M 0.761719 1.203125 L 118.359375 1.203125 L 118.359375 151.203125 L 0.761719 151.203125 Z M 0.761719 1.203125 " clip-rule="nonzero"/></clipPath><clipPath id="id4"><rect x="0" width="119" y="0" height="152"/></clipPath></defs><g mask="url(#id2)"><g transform="matrix(1, 0, 0, 1, 167, 67)"><g clip-path="url(#id4)"><g clip-path="url(#id3)"><path fill="#d9d9d9" d="M 13.636719 5.566406 C 9.066406 5.566406 5.34375 9.273438 5.34375 13.832031 L 5.34375 138.621094 C 5.34375 143.179688 9.066406 146.890625 13.636719 146.890625 L 105.695312 146.890625 C 110.265625 146.890625 113.988281 143.179688 113.988281 138.621094 L 113.988281 13.832031 C 113.988281 9.273438 110.265625 5.566406 105.695312 5.566406 Z M 105.695312 151.230469 L 13.636719 151.230469 C 6.664062 151.230469 0.988281 145.574219 0.988281 138.621094 L 0.988281 13.832031 C 0.988281 6.882812 6.664062 1.226562 13.636719 1.226562 L 105.695312 1.226562 C 112.664062 1.226562 118.339844 6.882812 118.339844 13.832031 L 118.339844 138.621094 C 118.339844 145.574219 112.664062 151.230469 105.695312 151.230469 " fill-opacity="1" fill-rule="nonzero"/></g><path fill="#d9d9d9" d="M 98.863281 20.464844 C 98.574219 20.464844 98.273438 20.476562 97.960938 20.503906 C 97.894531 20.511719 97.828125 20.515625 97.761719 20.515625 L 20.945312 20.566406 C 16.90625 20.566406 15.183594 22.132812 15.183594 25.808594 L 15.183594 38.382812 C 15.183594 43.003906 17.296875 43.625 19.367188 43.625 L 98.761719 43.625 C 101.8125 43.625 104.144531 43.242188 104.144531 38.382812 L 104.144531 25.808594 C 104.144531 24.203125 103.628906 20.464844 98.863281 20.464844 Z M 98.761719 48.121094 L 19.367188 48.121094 C 13.921875 48.121094 10.671875 44.480469 10.671875 38.382812 L 10.671875 25.808594 C 10.671875 19.617188 14.414062 16.066406 20.941406 16.066406 L 97.664062 16.015625 C 105.335938 15.394531 108.65625 20.632812 108.65625 25.808594 L 108.65625 38.382812 C 108.65625 44.847656 105.328125 48.121094 98.761719 48.121094 " fill-opacity="1" fill-rule="nonzero"/><path fill="#d9d9d9" d="M 15.023438 66.957031 L 23.09375 66.957031 L 23.09375 58.667969 L 15.023438 58.667969 Z M 24.335938 71.292969 L 13.789062 71.292969 C 12.070312 71.292969 10.671875 69.902344 10.671875 68.191406 L 10.671875 57.433594 C 10.671875 55.722656 12.070312 54.332031 13.789062 54.332031 L 24.335938 54.332031 C 26.050781 54.332031 27.449219 55.722656 27.449219 57.433594 L 27.449219 68.191406 C 27.449219 69.902344 26.050781 71.292969 24.335938 71.292969 " fill-opacity="1" fill-rule="nonzero"/><path fill="#d9d9d9" d="M 35.242188 66.957031 L 43.308594 66.957031 L 43.308594 58.667969 L 35.242188 58.667969 Z M 44.546875 71.292969 L 34 71.292969 C 32.28125 71.292969 30.886719 69.902344 30.886719 68.191406 L 30.886719 57.433594 C 30.886719 55.722656 32.28125 54.332031 34 54.332031 L 44.546875 54.332031 C 46.261719 54.332031 47.664062 55.722656 47.664062 57.433594 L 47.664062 68.191406 C 47.664062 69.902344 46.261719 71.292969 44.546875 71.292969 " fill-opacity="1" fill-rule="nonzero"/><path fill="#d9d9d9" d="M 55.453125 66.957031 L 63.519531 66.957031 L 63.519531 58.667969 L 55.453125 58.667969 Z M 64.761719 71.292969 L 54.210938 71.292969 C 52.496094 71.292969 51.097656 69.902344 51.097656 68.191406 L 51.097656 57.433594 C 51.097656 55.722656 52.496094 54.332031 54.210938 54.332031 L 64.761719 54.332031 C 66.480469 54.332031 67.875 55.722656 67.875 57.433594 L 67.875 68.191406 C 67.875 69.902344 66.480469 71.292969 64.761719 71.292969 " fill-opacity="1" fill-rule="nonzero"/><path fill="#d9d9d9" d="M 75.664062 66.957031 L 83.734375 66.957031 L 83.734375 58.667969 L 75.664062 58.667969 Z M 84.972656 71.292969 L 74.425781 71.292969 C 72.710938 71.292969 71.3125 69.902344 71.3125 68.191406 L 71.3125 57.433594 C 71.3125 55.722656 72.710938 54.332031 74.425781 54.332031 L 84.972656 54.332031 C 86.691406 54.332031 88.085938 55.722656 88.085938 57.433594 L 88.085938 68.191406 C 88.085938 69.902344 86.691406 71.292969 84.972656 71.292969 " fill-opacity="1" fill-rule="nonzero"/><path fill="#d9d9d9" d="M 15.023438 88.6875 L 23.09375 88.6875 L 23.09375 80.402344 L 15.023438 80.402344 Z M 24.335938 93.027344 L 13.789062 93.027344 C 12.070312 93.027344 10.671875 91.636719 10.671875 89.921875 L 10.671875 79.167969 C 10.671875 77.453125 12.070312 76.0625 13.789062 76.0625 L 24.335938 76.0625 C 26.050781 76.0625 27.449219 77.453125 27.449219 79.167969 L 27.449219 89.921875 C 27.449219 91.636719 26.050781 93.027344 24.335938 93.027344 " fill-opacity="1" fill-rule="nonzero"/><path fill="#d9d9d9" d="M 35.242188 88.6875 L 43.308594 88.6875 L 43.308594 80.402344 L 35.242188 80.402344 Z M 44.546875 93.027344 L 34 93.027344 C 32.28125 93.027344 30.886719 91.636719 30.886719 89.921875 L 30.886719 79.167969 C 30.886719 77.453125 32.28125 76.0625 34 76.0625 L 44.546875 76.0625 C 46.261719 76.0625 47.664062 77.453125 47.664062 79.167969 L 47.664062 89.921875 C 47.664062 91.636719 46.261719 93.027344 44.546875 93.027344 " fill-opacity="1" fill-rule="nonzero"/><path fill="#d9d9d9" d="M 55.453125 88.6875 L 63.519531 88.6875 L 63.519531 80.402344 L 55.453125 80.402344 Z M 64.761719 93.027344 L 54.210938 93.027344 C 52.496094 93.027344 51.097656 91.636719 51.097656 89.921875 L 51.097656 79.167969 C 51.097656 77.453125 52.496094 76.0625 54.210938 76.0625 L 64.761719 76.0625 C 66.480469 76.0625 67.875 77.453125 67.875 79.167969 L 67.875 89.921875 C 67.875 91.636719 66.480469 93.027344 64.761719 93.027344 " fill-opacity="1" fill-rule="nonzero"/><path fill="#d9d9d9" d="M 75.664062 88.679688 L 83.734375 88.679688 L 83.734375 80.390625 L 75.664062 80.390625 Z M 84.972656 93.019531 L 74.425781 93.019531 C 72.710938 93.019531 71.3125 91.625 71.3125 89.914062 L 71.3125 79.15625 C 71.3125 77.445312 72.710938 76.054688 74.425781 76.054688 L 84.972656 76.054688 C 86.691406 76.054688 88.085938 77.445312 88.085938 79.15625 L 88.085938 89.914062 C 88.085938 91.625 86.691406 93.019531 84.972656 93.019531 " fill-opacity="1" fill-rule="nonzero"/><path fill="#d9d9d9" d="M 15.023438 110.421875 L 23.09375 110.421875 L 23.09375 102.132812 L 15.023438 102.132812 Z M 24.335938 114.757812 L 13.789062 114.757812 C 12.070312 114.757812 10.671875 113.367188 10.671875 111.65625 L 10.671875 100.898438 C 10.671875 99.1875 12.070312 97.792969 13.789062 97.792969 L 24.335938 97.792969 C 26.050781 97.792969 27.449219 99.1875 27.449219 100.898438 L 27.449219 111.65625 C 27.449219 113.367188 26.050781 114.757812 24.335938 114.757812 " fill-opacity="1" fill-rule="nonzero"/><path fill="#d9d9d9" d="M 35.242188 110.421875 L 43.308594 110.421875 L 43.308594 102.132812 L 35.242188 102.132812 Z M 44.546875 114.757812 L 34 114.757812 C 32.28125 114.757812 30.886719 113.367188 30.886719 111.65625 L 30.886719 100.898438 C 30.886719 99.1875 32.28125 97.792969 34 97.792969 L 44.546875 97.792969 C 46.261719 97.792969 47.664062 99.1875 47.664062 100.898438 L 47.664062 111.65625 C 47.664062 113.367188 46.261719 114.757812 44.546875 114.757812 " fill-opacity="1" fill-rule="nonzero"/><path fill="#d9d9d9" d="M 55.453125 110.421875 L 63.519531 110.421875 L 63.519531 102.132812 L 55.453125 102.132812 Z M 64.761719 114.757812 L 54.210938 114.757812 C 52.496094 114.757812 51.097656 113.367188 51.097656 111.65625 L 51.097656 100.898438 C 51.097656 99.1875 52.496094 97.792969 54.210938 97.792969 L 64.761719 97.792969 C 66.480469 97.792969 67.875 99.1875 67.875 100.898438 L 67.875 111.65625 C 67.875 113.367188 66.480469 114.757812 64.761719 114.757812 " fill-opacity="1" fill-rule="nonzero"/><path fill="#d9d9d9" d="M 15.023438 132.148438 L 23.09375 132.148438 L 23.09375 123.863281 L 15.023438 123.863281 Z M 24.335938 136.492188 L 13.789062 136.492188 C 12.070312 136.492188 10.671875 135.097656 10.671875 133.386719 L 10.671875 122.632812 C 10.671875 120.917969 12.070312 119.527344 13.789062 119.527344 L 24.335938 119.527344 C 26.050781 119.527344 27.449219 120.917969 27.449219 122.632812 L 27.449219 133.386719 C 27.449219 135.097656 26.050781 136.492188 24.335938 136.492188 " fill-opacity="1" fill-rule="nonzero"/><path fill="#d9d9d9" d="M 35.242188 132.148438 L 43.308594 132.148438 L 43.308594 123.863281 L 35.242188 123.863281 Z M 44.546875 136.492188 L 34 136.492188 C 32.28125 136.492188 30.886719 135.097656 30.886719 133.386719 L 30.886719 122.632812 C 30.886719 120.917969 32.28125 119.527344 34 119.527344 L 44.546875 119.527344 C 46.261719 119.527344 47.664062 120.917969 47.664062 122.632812 L 47.664062 133.386719 C 47.664062 135.097656 46.261719 136.492188 44.546875 136.492188 " fill-opacity="1" fill-rule="nonzero"/><path fill="#d9d9d9" d="M 55.453125 132.148438 L 63.519531 132.148438 L 63.519531 123.863281 L 55.453125 123.863281 Z M 64.761719 136.492188 L 54.210938 136.492188 C 52.496094 136.492188 51.097656 135.097656 51.097656 133.386719 L 51.097656 122.632812 C 51.097656 120.917969 52.496094 119.527344 54.210938 119.527344 L 64.761719 119.527344 C 66.480469 119.527344 67.875 120.917969 67.875 122.632812 L 67.875 133.386719 C 67.875 135.097656 66.480469 136.492188 64.761719 136.492188 " fill-opacity="1" fill-rule="nonzero"/><path fill="#d9d9d9" d="M 75.664062 110.40625 L 83.734375 110.40625 L 83.734375 102.117188 L 75.664062 102.117188 Z M 84.972656 114.742188 L 74.425781 114.742188 C 72.710938 114.742188 71.3125 113.347656 71.3125 111.636719 L 71.3125 100.878906 C 71.3125 99.167969 72.710938 97.777344 74.425781 97.777344 L 84.972656 97.777344 C 86.691406 97.777344 88.085938 99.167969 88.085938 100.878906 L 88.085938 111.636719 C 88.085938 113.347656 86.691406 114.742188 84.972656 114.742188 " fill-opacity="1" fill-rule="nonzero"/><path fill="#d9d9d9" d="M 96.234375 110.40625 L 96.234375 58.667969 L 104.304688 58.667969 L 104.304688 110.40625 Z M 105.542969 54.332031 L 94.996094 54.332031 C 93.277344 54.332031 91.878906 55.722656 91.878906 57.433594 L 91.878906 111.636719 C 91.878906 113.347656 93.277344 114.742188 94.996094 114.742188 L 105.542969 114.742188 C 107.257812 114.742188 108.65625 113.347656 108.65625 111.636719 L 108.65625 57.433594 C 108.65625 55.722656 107.257812 54.332031 105.542969 54.332031 " fill-opacity="1" fill-rule="nonzero"/><path fill="#d9d9d9" d="M 104.542969 132.085938 L 75.636719 132.085938 L 75.636719 123.929688 L 104.542969 123.929688 Z M 71.3125 122.675781 L 71.3125 133.339844 C 71.3125 135.078125 72.289062 136.492188 74.503906 136.492188 L 105.578125 136.492188 C 106.636719 136.492188 108.65625 135.808594 108.65625 133.339844 L 108.65625 122.675781 C 108.65625 120.398438 106.496094 119.527344 105.4375 119.527344 L 74.457031 119.527344 C 72.335938 119.527344 71.3125 120.9375 71.3125 122.675781 " fill-opacity="1" fill-rule="nonzero"/></g></g></g></svg>