<svg xmlns="http://www.w3.org/2000/svg" xmlns:xlink="http://www.w3.org/1999/xlink" width="500" zoomAndPan="magnify" viewBox="0 0 375 374.999991" height="500" preserveAspectRatio="xMidYMid meet" version="1.0"><defs><filter x="0%" y="0%" width="100%" height="100%" id="id1"><feColorMatrix values="0 0 0 0 1 0 0 0 0 1 0 0 0 0 1 0 0 0 1 0" color-interpolation-filters="sRGB"/></filter><mask id="id2"><g filter="url(#id1)"><rect x="-37.5" width="450" fill="#000000" y="-37.499999" height="449.999989" fill-opacity="0.1294"/></g></mask><clipPath id="id3"><path d="M 1 0.628906 L 150 0.628906 L 150 149.128906 L 1 149.128906 Z M 1 0.628906 " clip-rule="nonzero"/></clipPath><clipPath id="id4"><rect x="0" width="151" y="0" height="150"/></clipPath></defs><g mask="url(#id2)"><g transform="matrix(1, 0, 0, 1, 84, 87)"><g clip-path="url(#id4)"><g clip-path="url(#id3)"><path fill="#000000" d="M 148.601562 25.890625 L 142.152344 24.273438 C 141.898438 23.554688 141.605469 22.851562 141.28125 22.160156 L 144.699219 16.332031 C 144.882812 16.019531 144.953125 15.679688 144.910156 15.316406 C 144.863281 14.953125 144.714844 14.640625 144.457031 14.378906 L 136.234375 6.148438 C 135.976562 5.890625 135.664062 5.742188 135.300781 5.695312 C 134.9375 5.648438 134.597656 5.71875 134.285156 5.90625 L 128.382812 9.246094 C 127.695312 8.921875 126.992188 8.628906 126.273438 8.375 L 124.578125 1.839844 C 124.484375 1.472656 124.289062 1.175781 123.984375 0.949219 C 123.683594 0.722656 123.34375 0.617188 122.96875 0.628906 L 111.359375 0.628906 C 110.984375 0.617188 110.644531 0.722656 110.34375 0.949219 C 110.039062 1.175781 109.84375 1.472656 109.75 1.839844 L 108.136719 8.375 C 107.417969 8.628906 106.714844 8.921875 106.023438 9.246094 L 100.238281 5.824219 C 99.914062 5.621094 99.566406 5.542969 99.1875 5.589844 C 98.808594 5.632812 98.488281 5.792969 98.222656 6.066406 L 91.582031 12.71875 C 90.066406 12.113281 88.519531 11.613281 86.9375 11.214844 C 63.660156 5.46875 44.765625 9.667969 30.757812 23.695312 C 19.730469 34.734375 16.617188 56.542969 16.246094 60.285156 C 10.039062 67.257812 0.289062 79.089844 1.738281 83.160156 C 3.109375 86.9375 9.929688 89.40625 13.085938 90.261719 C 12.847656 95.714844 12.183594 116.085938 16.3125 123.011719 C 20.4375 129.9375 35.464844 126.238281 41.347656 124.414062 L 40.929688 147.515625 C 40.921875 147.96875 41.078125 148.355469 41.394531 148.675781 C 41.710938 148.996094 42.089844 149.160156 42.539062 149.160156 L 93.386719 149.160156 C 93.644531 149.160156 93.886719 149.101562 94.117188 148.984375 C 94.347656 148.867188 94.539062 148.703125 94.691406 148.492188 C 94.839844 148.285156 94.9375 148.050781 94.976562 147.796875 C 95.015625 147.542969 94.996094 147.292969 94.917969 147.046875 C 94.917969 146.949219 93.304688 141.847656 94.917969 132.792969 C 95.207031 132.871094 95.5 132.871094 95.789062 132.785156 C 96.078125 132.703125 96.324219 132.546875 96.53125 132.324219 L 100.203125 128.144531 C 100.800781 128.144531 101.382812 128.273438 101.960938 128.320312 L 104.914062 133.164062 C 105.058594 133.40625 105.257812 133.597656 105.503906 133.734375 C 105.75 133.871094 106.015625 133.941406 106.296875 133.9375 C 106.453125 133.960938 106.609375 133.960938 106.765625 133.9375 L 116.4375 131.066406 C 116.792969 130.960938 117.082031 130.761719 117.296875 130.460938 C 117.511719 130.15625 117.613281 129.824219 117.597656 129.453125 L 117.375 123.738281 C 117.839844 123.382812 118.308594 123.011719 118.742188 122.625 L 124.289062 123.996094 C 124.648438 124.082031 124.996094 124.050781 125.332031 123.902344 C 125.667969 123.753906 125.921875 123.515625 126.09375 123.1875 L 130.929688 114.359375 C 131.105469 114.035156 131.164062 113.691406 131.105469 113.328125 C 131.042969 112.964844 130.878906 112.65625 130.609375 112.40625 L 126.417969 108.515625 C 126.417969 107.933594 126.5625 107.355469 126.59375 106.773438 L 131.429688 103.804688 C 131.742188 103.601562 131.960938 103.324219 132.082031 102.972656 C 132.199219 102.617188 132.199219 102.265625 132.074219 101.914062 L 129.191406 92.230469 C 129.082031 91.878906 128.878906 91.59375 128.582031 91.378906 C 128.28125 91.167969 127.945312 91.066406 127.578125 91.082031 L 121.871094 91.292969 C 121.515625 90.824219 121.144531 90.375 120.757812 89.921875 L 122.113281 84.371094 C 122.199219 84.015625 122.167969 83.671875 122.019531 83.339844 C 121.875 83.007812 121.640625 82.753906 121.324219 82.578125 L 118.695312 81.15625 C 120.195312 76.152344 121.074219 71.042969 121.324219 65.824219 L 123.046875 65.824219 C 123.425781 65.835938 123.765625 65.726562 124.066406 65.5 C 124.367188 65.273438 124.566406 64.976562 124.660156 64.613281 L 126.351562 58.15625 C 127.070312 57.902344 127.777344 57.609375 128.464844 57.285156 L 134.285156 60.707031 C 134.601562 60.890625 134.941406 60.957031 135.304688 60.910156 C 135.667969 60.863281 135.976562 60.707031 136.234375 60.449219 L 144.375 52.28125 C 144.632812 52.019531 144.785156 51.707031 144.828125 51.34375 C 144.875 50.980469 144.804688 50.640625 144.617188 50.328125 L 141.199219 44.5 C 141.527344 43.808594 141.816406 43.105469 142.070312 42.386719 L 148.519531 40.773438 C 148.882812 40.675781 149.179688 40.480469 149.40625 40.175781 C 149.632812 39.875 149.742188 39.535156 149.726562 39.15625 L 149.726562 27.535156 C 149.753906 27.164062 149.660156 26.824219 149.449219 26.515625 C 149.238281 26.210938 148.957031 26 148.601562 25.890625 Z M 91.289062 145.898438 L 44.183594 145.898438 L 44.621094 122.203125 C 44.628906 122.070312 44.617188 121.941406 44.59375 121.808594 C 44.570312 121.679688 44.527344 121.554688 44.472656 121.433594 C 44.417969 121.3125 44.347656 121.199219 44.261719 121.097656 C 44.179688 120.996094 44.085938 120.902344 43.980469 120.824219 C 43.875 120.742188 43.757812 120.675781 43.636719 120.625 C 43.515625 120.574219 43.386719 120.539062 43.257812 120.519531 C 43.125 120.496094 42.992188 120.492188 42.863281 120.503906 C 42.730469 120.519531 42.601562 120.546875 42.476562 120.589844 C 34.898438 123.285156 21.839844 125.851562 19.085938 121.269531 C 15.617188 115.539062 15.957031 96.085938 16.375 89.082031 C 16.386719 88.703125 16.28125 88.363281 16.054688 88.0625 C 15.828125 87.761719 15.53125 87.5625 15.167969 87.46875 C 11.394531 86.515625 5.496094 84.144531 4.722656 82.09375 C 4.382812 79.960938 11.78125 70.003906 18.90625 62.046875 C 19.132812 61.785156 19.265625 61.484375 19.308594 61.140625 C 19.308594 60.898438 22.003906 36.929688 33.046875 25.953125 C 46.378906 12.605469 63.675781 8.796875 86.148438 14.332031 C 87.320312 14.628906 88.476562 14.984375 89.613281 15.398438 C 89.609375 15.695312 89.679688 15.976562 89.824219 16.238281 L 93.242188 22.0625 C 92.914062 22.753906 92.625 23.457031 92.371094 24.179688 L 85.921875 25.792969 C 85.554688 25.886719 85.261719 26.085938 85.035156 26.386719 C 84.808594 26.6875 84.699219 27.027344 84.710938 27.40625 L 84.710938 39.027344 C 84.699219 39.40625 84.808594 39.746094 85.035156 40.046875 C 85.261719 40.351562 85.554688 40.546875 85.921875 40.640625 L 92.371094 42.257812 C 92.628906 42.984375 92.917969 43.675781 93.242188 44.371094 L 89.824219 50.199219 C 89.722656 50.363281 89.652344 50.539062 89.613281 50.730469 C 89.578125 50.921875 89.574219 51.109375 89.605469 51.300781 C 89.636719 51.492188 89.699219 51.671875 89.796875 51.839844 C 89.890625 52.007812 90.011719 52.15625 90.160156 52.28125 L 98.222656 60.429688 C 98.480469 60.691406 98.789062 60.84375 99.152344 60.894531 C 99.515625 60.941406 99.855469 60.875 100.171875 60.691406 L 105.992188 57.269531 C 106.6875 57.589844 107.378906 57.882812 108.105469 58.140625 L 109.714844 64.597656 C 109.808594 64.960938 110.007812 65.257812 110.308594 65.484375 C 110.613281 65.710938 110.953125 65.820312 111.328125 65.808594 L 117.988281 65.808594 C 117.789062 70.53125 117.050781 75.167969 115.777344 79.71875 L 112.554688 77.929688 C 112.230469 77.757812 111.890625 77.703125 111.53125 77.761719 C 111.171875 77.820312 110.867188 77.984375 110.617188 78.25 L 106.734375 82.449219 C 106.152344 82.449219 105.558594 82.304688 104.976562 82.269531 L 102.027344 77.429688 C 101.835938 77.109375 101.566406 76.886719 101.222656 76.753906 C 100.875 76.621094 100.527344 76.609375 100.171875 76.71875 L 90.582031 79.589844 C 90.226562 79.695312 89.9375 79.898438 89.722656 80.199219 C 89.507812 80.5 89.40625 80.835938 89.421875 81.207031 L 89.644531 86.917969 C 89.171875 87.265625 88.714844 87.636719 88.277344 88.035156 L 82.730469 86.660156 C 82.371094 86.574219 82.023438 86.605469 81.6875 86.753906 C 81.351562 86.90625 81.097656 87.144531 80.925781 87.46875 L 76.089844 96.183594 C 75.914062 96.507812 75.855469 96.851562 75.914062 97.214844 C 75.976562 97.582031 76.140625 97.886719 76.410156 98.136719 L 80.601562 102.027344 C 80.601562 102.609375 80.457031 103.191406 80.425781 103.769531 L 75.589844 106.742188 C 75.273438 106.929688 75.050781 107.199219 74.921875 107.539062 C 74.789062 107.882812 74.773438 108.230469 74.878906 108.582031 L 77.75 118.265625 C 77.855469 118.617188 78.058594 118.902344 78.359375 119.117188 C 78.660156 119.328125 78.992188 119.425781 79.359375 119.410156 L 85.082031 119.203125 C 85.421875 119.671875 85.792969 120.121094 86.179688 120.558594 L 84.824219 126.109375 C 84.738281 126.46875 84.769531 126.816406 84.917969 127.152344 C 85.070312 127.488281 85.308594 127.746094 85.632812 127.917969 L 91.773438 131.179688 C 90.730469 136.058594 90.566406 140.964844 91.289062 145.898438 Z M 119.710938 93.910156 C 120.042969 94.402344 120.503906 94.636719 121.097656 94.617188 L 126.433594 94.410156 L 128.59375 101.640625 L 124.015625 104.402344 C 123.507812 104.710938 123.25 105.160156 123.242188 105.757812 C 123.222656 106.769531 123.128906 107.777344 122.953125 108.773438 C 122.847656 109.351562 123.007812 109.84375 123.433594 110.242188 L 127.335938 113.875 L 123.773438 120.507812 L 118.597656 119.234375 C 118.019531 119.085938 117.515625 119.222656 117.082031 119.636719 C 116.359375 120.34375 115.582031 120.984375 114.746094 121.558594 C 114.261719 121.894531 114.03125 122.355469 114.054688 122.945312 L 114.246094 128.273438 L 107.023438 130.4375 L 104.265625 125.867188 C 103.960938 125.367188 103.515625 125.109375 102.929688 125.09375 C 101.917969 125.070312 100.910156 124.96875 99.914062 124.785156 L 99.625 124.785156 C 99.152344 124.785156 98.753906 124.957031 98.433594 125.304688 L 94.804688 129.210938 L 88.195312 125.640625 L 89.453125 120.460938 C 89.597656 119.890625 89.46875 119.390625 89.066406 118.960938 C 88.363281 118.226562 87.722656 117.441406 87.148438 116.601562 C 86.8125 116.117188 86.347656 115.886719 85.761719 115.910156 L 80.488281 116.070312 L 78.328125 108.855469 L 82.890625 106.078125 C 83.394531 105.773438 83.652344 105.328125 83.664062 104.738281 C 83.695312 103.726562 83.800781 102.71875 83.988281 101.722656 C 84.089844 101.140625 83.921875 100.648438 83.488281 100.253906 L 79.523438 96.621094 L 83.101562 89.988281 L 88.277344 91.261719 C 88.847656 91.402344 89.347656 91.265625 89.773438 90.859375 C 90.5 90.152344 91.277344 89.511719 92.113281 88.9375 C 92.605469 88.605469 92.839844 88.140625 92.820312 87.550781 L 92.613281 82.222656 L 99.835938 80.058594 L 102.589844 84.5625 C 102.890625 85.070312 103.339844 85.335938 103.929688 85.355469 C 104.941406 85.367188 105.949219 85.46875 106.945312 85.660156 C 107.53125 85.769531 108.023438 85.601562 108.425781 85.160156 L 112.054688 81.335938 L 118.679688 84.917969 L 117.40625 90.097656 C 117.265625 90.671875 117.398438 91.175781 117.808594 91.601562 C 118.5 92.324219 119.132812 93.09375 119.710938 93.910156 Z M 146.585938 37.753906 L 140.425781 39.367188 C 139.847656 39.511719 139.46875 39.867188 139.28125 40.433594 C 138.921875 41.546875 138.46875 42.621094 137.929688 43.660156 C 137.785156 43.910156 137.710938 44.179688 137.710938 44.46875 C 137.710938 44.757812 137.785156 45.023438 137.929688 45.273438 L 141.152344 50.777344 L 134.703125 57.234375 L 129.207031 54.007812 C 128.957031 53.863281 128.6875 53.792969 128.402344 53.792969 C 128.113281 53.792969 127.84375 53.863281 127.59375 54.007812 C 126.558594 54.550781 125.484375 55 124.371094 55.363281 C 123.808594 55.546875 123.453125 55.921875 123.304688 56.492188 L 121.695312 62.675781 L 112.730469 62.675781 L 111.117188 56.476562 C 110.96875 55.90625 110.617188 55.527344 110.054688 55.347656 C 108.941406 54.984375 107.867188 54.535156 106.832031 53.992188 C 106.582031 53.847656 106.3125 53.773438 106.023438 53.773438 C 105.738281 53.773438 105.46875 53.847656 105.21875 53.992188 L 99.722656 57.21875 L 93.273438 50.761719 L 96.496094 45.257812 C 96.640625 45.007812 96.714844 44.738281 96.714844 44.453125 C 96.714844 44.164062 96.640625 43.894531 96.496094 43.644531 C 95.957031 42.605469 95.503906 41.53125 95.144531 40.417969 C 94.960938 39.855469 94.585938 39.5 94.015625 39.351562 L 87.839844 37.738281 L 87.839844 28.699219 L 94.015625 27.082031 C 94.585938 26.933594 94.960938 26.582031 95.144531 26.019531 C 95.503906 24.90625 95.957031 23.828125 96.496094 22.789062 C 96.640625 22.539062 96.714844 22.269531 96.714844 21.984375 C 96.714844 21.695312 96.640625 21.425781 96.496094 21.175781 L 93.273438 15.671875 L 99.722656 9.214844 L 105.21875 12.445312 C 105.46875 12.585938 105.738281 12.660156 106.023438 12.660156 C 106.3125 12.660156 106.582031 12.585938 106.832031 12.445312 C 107.867188 11.902344 108.941406 11.449219 110.054688 11.085938 C 110.597656 10.921875 110.953125 10.566406 111.117188 10.023438 L 112.730469 3.855469 L 121.839844 3.855469 L 123.453125 10.023438 C 123.601562 10.59375 123.953125 10.96875 124.515625 11.152344 C 125.625 11.523438 126.703125 11.980469 127.738281 12.523438 C 127.988281 12.667969 128.257812 12.742188 128.546875 12.742188 C 128.832031 12.742188 129.101562 12.667969 129.351562 12.523438 L 134.847656 9.296875 L 141.296875 15.753906 L 138.074219 21.257812 C 137.929688 21.507812 137.855469 21.777344 137.855469 22.0625 C 137.855469 22.351562 137.929688 22.621094 138.074219 22.871094 C 138.617188 23.90625 139.066406 24.984375 139.425781 26.097656 C 139.613281 26.664062 139.992188 27.019531 140.570312 27.164062 L 146.730469 28.777344 Z M 146.585938 37.753906 " fill-opacity="1" fill-rule="nonzero"/></g><path fill="#000000" d="M 117.230469 19.078125 C 116.296875 19.078125 115.375 19.167969 114.460938 19.347656 C 113.550781 19.527344 112.664062 19.796875 111.800781 20.152344 C 110.941406 20.507812 110.125 20.945312 109.351562 21.460938 C 108.574219 21.980469 107.859375 22.566406 107.199219 23.226562 C 106.542969 23.882812 105.953125 24.601562 105.4375 25.375 C 104.917969 26.148438 104.480469 26.96875 104.125 27.828125 C 103.765625 28.691406 103.496094 29.578125 103.316406 30.492188 C 103.132812 31.40625 103.042969 32.328125 103.042969 33.261719 C 103.042969 34.191406 103.132812 35.117188 103.3125 36.03125 C 103.496094 36.945312 103.765625 37.832031 104.121094 38.691406 C 104.476562 39.554688 104.914062 40.371094 105.429688 41.148438 C 105.945312 41.921875 106.535156 42.640625 107.191406 43.296875 C 107.851562 43.957031 108.566406 44.546875 109.339844 45.0625 C 110.113281 45.582031 110.933594 46.019531 111.792969 46.375 C 112.652344 46.730469 113.539062 47 114.453125 47.183594 C 115.363281 47.363281 116.285156 47.453125 117.21875 47.453125 C 118.148438 47.453125 119.070312 47.363281 119.984375 47.179688 C 120.898438 46.996094 121.78125 46.726562 122.644531 46.371094 C 123.503906 46.015625 124.320312 45.574219 125.09375 45.058594 C 125.867188 44.539062 126.582031 43.949219 127.238281 43.289062 C 127.898438 42.632812 128.484375 41.914062 129 41.136719 C 129.519531 40.363281 129.953125 39.542969 130.308594 38.683594 C 130.664062 37.820312 130.933594 36.933594 131.113281 36.019531 C 131.292969 35.105469 131.382812 34.183594 131.382812 33.25 C 131.382812 32.320312 131.289062 31.398438 131.109375 30.484375 C 130.925781 29.574219 130.65625 28.6875 130.300781 27.828125 C 129.945312 26.96875 129.507812 26.152344 128.992188 25.378906 C 128.476562 24.605469 127.890625 23.890625 127.234375 23.234375 C 126.574219 22.574219 125.859375 21.988281 125.089844 21.472656 C 124.316406 20.953125 123.5 20.515625 122.644531 20.160156 C 121.785156 19.804688 120.898438 19.535156 119.988281 19.351562 C 119.078125 19.171875 118.15625 19.078125 117.230469 19.078125 Z M 117.230469 44.210938 C 116.507812 44.210938 115.796875 44.140625 115.09375 44.003906 C 114.386719 43.863281 113.703125 43.65625 113.039062 43.382812 C 112.371094 43.105469 111.742188 42.769531 111.144531 42.371094 C 110.542969 41.972656 109.992188 41.515625 109.480469 41.007812 C 108.972656 40.5 108.519531 39.949219 108.117188 39.347656 C 107.71875 38.75 107.378906 38.121094 107.105469 37.453125 C 106.828125 36.789062 106.621094 36.105469 106.480469 35.398438 C 106.339844 34.691406 106.265625 33.980469 106.265625 33.261719 C 106.265625 32.539062 106.335938 31.828125 106.476562 31.121094 C 106.613281 30.414062 106.820312 29.730469 107.097656 29.0625 C 107.371094 28.398438 107.707031 27.765625 108.105469 27.167969 C 108.503906 26.570312 108.957031 26.015625 109.46875 25.503906 C 109.976562 24.996094 110.527344 24.542969 111.125 24.140625 C 111.722656 23.742188 112.351562 23.402344 113.015625 23.125 C 113.679688 22.851562 114.367188 22.640625 115.070312 22.5 C 115.777344 22.359375 116.488281 22.289062 117.207031 22.289062 C 117.925781 22.289062 118.636719 22.359375 119.34375 22.5 C 120.046875 22.640625 120.734375 22.847656 121.398438 23.121094 C 122.0625 23.398438 122.691406 23.734375 123.292969 24.136719 C 123.890625 24.535156 124.441406 24.988281 124.949219 25.496094 C 125.460938 26.007812 125.914062 26.558594 126.3125 27.160156 C 126.710938 27.757812 127.050781 28.390625 127.324219 29.054688 C 127.601562 29.71875 127.808594 30.40625 127.949219 31.109375 C 128.089844 31.816406 128.160156 32.53125 128.160156 33.25 C 128.160156 33.96875 128.089844 34.679688 127.949219 35.386719 C 127.808594 36.089844 127.601562 36.777344 127.328125 37.441406 C 127.050781 38.105469 126.714844 38.734375 126.316406 39.332031 C 125.917969 39.933594 125.464844 40.484375 124.957031 40.992188 C 124.449219 41.503906 123.898438 41.957031 123.300781 42.355469 C 122.707031 42.757812 122.074219 43.09375 121.414062 43.371094 C 120.75 43.648438 120.066406 43.855469 119.363281 43.996094 C 118.65625 44.136719 117.945312 44.207031 117.230469 44.210938 Z M 117.230469 44.210938 " fill-opacity="1" fill-rule="nonzero"/><path fill="#000000" d="M 79.101562 73.054688 C 79.457031 73.144531 79.804688 73.113281 80.140625 72.96875 C 80.476562 72.820312 80.730469 72.585938 80.910156 72.261719 L 85.210938 64.191406 C 85.386719 63.867188 85.445312 63.523438 85.386719 63.160156 C 85.324219 62.796875 85.160156 62.488281 84.890625 62.238281 L 81.167969 58.785156 C 81.167969 58.300781 81.277344 57.832031 81.3125 57.347656 L 85.664062 54.703125 C 85.976562 54.511719 86.199219 54.246094 86.332031 53.902344 C 86.464844 53.558594 86.476562 53.214844 86.375 52.863281 L 83.714844 44.210938 C 83.605469 43.855469 83.402344 43.574219 83.101562 43.359375 C 82.804688 43.148438 82.46875 43.046875 82.101562 43.0625 L 77.023438 43.242188 C 76.734375 42.855469 76.425781 42.484375 76.121094 42.128906 L 77.328125 37.1875 C 77.417969 36.828125 77.386719 36.484375 77.234375 36.144531 C 77.085938 35.808594 76.847656 35.554688 76.523438 35.378906 L 68.542969 31.070312 C 68.222656 30.898438 67.882812 30.84375 67.523438 30.902344 C 67.160156 30.964844 66.859375 31.125 66.609375 31.394531 L 63.207031 35.171875 C 62.738281 35.171875 62.257812 35.058594 61.773438 35.023438 L 59.144531 30.667969 C 58.953125 30.351562 58.6875 30.128906 58.347656 30 C 58.003906 29.867188 57.660156 29.851562 57.308594 29.957031 L 48.617188 32.570312 C 48.265625 32.679688 47.984375 32.882812 47.769531 33.183594 C 47.554688 33.484375 47.457031 33.816406 47.472656 34.1875 L 47.667969 39.269531 C 47.28125 39.5625 46.910156 39.867188 46.539062 40.191406 L 41.605469 38.964844 C 41.246094 38.875 40.902344 38.90625 40.566406 39.058594 C 40.226562 39.207031 39.972656 39.445312 39.800781 39.769531 L 35.496094 47.761719 C 35.320312 48.085938 35.261719 48.429688 35.324219 48.792969 C 35.382812 49.15625 35.546875 49.464844 35.816406 49.714844 L 39.558594 53.167969 C 39.558594 53.652344 39.445312 54.121094 39.414062 54.605469 L 35.058594 57.234375 C 34.746094 57.425781 34.523438 57.691406 34.390625 58.035156 C 34.261719 58.375 34.246094 58.722656 34.351562 59.074219 L 36.960938 67.757812 C 37.070312 68.113281 37.273438 68.394531 37.574219 68.609375 C 37.871094 68.824219 38.207031 68.921875 38.574219 68.90625 L 43.652344 68.710938 C 43.941406 69.097656 44.234375 69.472656 44.554688 69.84375 L 43.410156 74.78125 C 43.320312 75.136719 43.351562 75.484375 43.496094 75.820312 C 43.644531 76.15625 43.878906 76.414062 44.199219 76.589844 L 52.179688 80.898438 C 52.503906 81.074219 52.847656 81.132812 53.210938 81.070312 C 53.574219 81.011719 53.882812 80.847656 54.132812 80.574219 L 57.597656 76.847656 C 58.066406 76.847656 58.546875 76.960938 59.015625 76.992188 L 61.578125 81.335938 C 61.890625 81.847656 62.347656 82.105469 62.949219 82.109375 C 63.105469 82.132812 63.261719 82.132812 63.417969 82.109375 L 72.089844 79.511719 C 72.445312 79.40625 72.730469 79.203125 72.949219 78.902344 C 73.164062 78.601562 73.265625 78.265625 73.25 77.898438 L 73.058594 72.8125 C 73.445312 72.519531 73.816406 72.214844 74.167969 71.890625 Z M 72.65625 68.90625 C 72 69.539062 71.296875 70.109375 70.542969 70.617188 C 70.058594 70.953125 69.828125 71.414062 69.847656 72.003906 L 70.027344 76.71875 L 63.738281 78.589844 L 61.304688 74.570312 C 60.996094 74.0625 60.546875 73.804688 59.949219 73.796875 C 59.046875 73.78125 58.148438 73.6875 57.257812 73.523438 L 56.96875 73.523438 C 56.496094 73.519531 56.097656 73.691406 55.777344 74.039062 L 52.550781 77.492188 L 46.765625 74.378906 L 47.894531 69.792969 C 48.03125 69.21875 47.898438 68.71875 47.488281 68.292969 C 46.859375 67.640625 46.289062 66.941406 45.78125 66.195312 C 45.445312 65.710938 44.984375 65.476562 44.394531 65.5 L 39.6875 65.660156 L 37.816406 59.367188 L 41.800781 56.898438 C 42.300781 56.589844 42.558594 56.144531 42.574219 55.558594 C 42.589844 54.652344 42.679688 53.753906 42.847656 52.863281 C 42.957031 52.277344 42.796875 51.78125 42.363281 51.375 L 38.914062 48.148438 L 42.039062 42.351562 L 46.601562 43.484375 C 47.179688 43.621094 47.679688 43.480469 48.101562 43.0625 C 48.757812 42.441406 49.457031 41.871094 50.199219 41.351562 C 50.6875 41.019531 50.925781 40.558594 50.90625 39.964844 L 50.730469 35.265625 L 57.015625 33.378906 L 59.53125 37.445312 C 59.835938 37.949219 60.28125 38.207031 60.871094 38.222656 C 61.78125 38.238281 62.683594 38.332031 63.578125 38.496094 C 64.160156 38.597656 64.648438 38.429688 65.046875 37.996094 L 68.269531 34.558594 L 74.039062 37.753906 L 72.929688 42.320312 C 72.789062 42.894531 72.921875 43.394531 73.332031 43.820312 C 73.925781 44.449219 74.46875 45.113281 74.960938 45.824219 C 75.296875 46.308594 75.757812 46.539062 76.347656 46.519531 L 81.039062 46.339844 L 82.921875 52.636719 L 78.878906 55.105469 C 78.363281 55.410156 78.097656 55.863281 78.085938 56.460938 C 78.078125 57.367188 77.988281 58.265625 77.8125 59.15625 C 77.707031 59.742188 77.871094 60.238281 78.3125 60.640625 L 81.746094 63.871094 L 78.636719 69.664062 L 74.039062 68.503906 C 73.492188 68.386719 73.015625 68.523438 72.605469 68.90625 Z M 72.65625 68.90625 " fill-opacity="1" fill-rule="nonzero"/><path fill="#000000" d="M 71.300781 52.730469 C 71.085938 52.011719 70.800781 51.324219 70.449219 50.660156 C 70.097656 49.996094 69.683594 49.375 69.210938 48.792969 C 68.734375 48.210938 68.210938 47.683594 67.632812 47.203125 C 67.054688 46.726562 66.433594 46.308594 65.773438 45.953125 C 65.113281 45.597656 64.425781 45.308594 63.710938 45.089844 C 62.992188 44.871094 62.261719 44.722656 61.515625 44.644531 C 60.769531 44.570312 60.023438 44.566406 59.277344 44.636719 C 58.53125 44.707031 57.800781 44.851562 57.082031 45.066406 C 56.433594 45.261719 55.804688 45.511719 55.199219 45.820312 C 54.597656 46.125 54.023438 46.484375 53.484375 46.894531 C 52.941406 47.304688 52.441406 47.757812 51.980469 48.257812 C 51.523438 48.757812 51.109375 49.292969 50.746094 49.863281 C 50.378906 50.4375 50.070312 51.035156 49.8125 51.664062 C 49.554688 52.292969 49.351562 52.9375 49.210938 53.601562 C 49.066406 54.265625 48.984375 54.9375 48.960938 55.617188 C 48.9375 56.292969 48.976562 56.96875 49.070312 57.640625 C 49.167969 58.3125 49.324219 58.972656 49.539062 59.617188 C 49.75 60.257812 50.019531 60.878906 50.34375 61.476562 C 50.667969 62.070312 51.042969 62.636719 51.46875 63.164062 C 51.894531 63.695312 52.359375 64.179688 52.871094 64.628906 C 53.382812 65.074219 53.929688 65.46875 54.511719 65.820312 C 55.09375 66.167969 55.703125 66.460938 56.335938 66.699219 C 56.972656 66.941406 57.621094 67.121094 58.289062 67.246094 C 58.957031 67.371094 59.628906 67.433594 60.304688 67.4375 C 60.75 67.4375 61.191406 67.414062 61.632812 67.363281 C 62.074219 67.3125 62.511719 67.234375 62.941406 67.132812 C 63.375 67.03125 63.796875 66.90625 64.214844 66.753906 C 64.632812 66.605469 65.039062 66.429688 65.4375 66.230469 C 65.835938 66.03125 66.21875 65.8125 66.589844 65.566406 C 66.960938 65.324219 67.316406 65.058594 67.65625 64.773438 C 67.996094 64.488281 68.320312 64.1875 68.625 63.863281 C 68.929688 63.539062 69.214844 63.199219 69.480469 62.84375 C 69.746094 62.488281 69.988281 62.117188 70.210938 61.734375 C 70.433594 61.347656 70.632812 60.953125 70.808594 60.546875 C 70.984375 60.136719 71.136719 59.722656 71.265625 59.296875 C 71.394531 58.871094 71.496094 58.4375 71.574219 58 C 71.648438 57.5625 71.703125 57.121094 71.726562 56.679688 C 71.753906 56.234375 71.753906 55.792969 71.726562 55.347656 C 71.703125 54.90625 71.652344 54.464844 71.574219 54.027344 C 71.496094 53.589844 71.394531 53.15625 71.269531 52.730469 Z M 62.757812 63.871094 C 61.714844 64.175781 60.652344 64.273438 59.574219 64.164062 C 58.492188 64.050781 57.472656 63.738281 56.515625 63.222656 C 55.804688 62.835938 55.164062 62.351562 54.59375 61.773438 C 54.023438 61.195312 53.550781 60.546875 53.175781 59.828125 C 52.796875 59.109375 52.535156 58.351562 52.382812 57.554688 C 52.230469 56.757812 52.195312 55.953125 52.285156 55.144531 C 52.371094 54.339844 52.570312 53.5625 52.886719 52.8125 C 53.207031 52.066406 53.625 51.378906 54.144531 50.757812 C 54.664062 50.136719 55.265625 49.601562 55.945312 49.15625 C 56.621094 48.710938 57.351562 48.375 58.128906 48.148438 C 58.890625 47.925781 59.671875 47.8125 60.46875 47.808594 C 61.347656 47.808594 62.207031 47.945312 63.042969 48.222656 C 63.878906 48.5 64.652344 48.902344 65.359375 49.429688 C 66.066406 49.953125 66.671875 50.578125 67.179688 51.300781 C 67.683594 52.023438 68.066406 52.808594 68.316406 53.652344 C 68.46875 54.171875 68.570312 54.699219 68.617188 55.238281 C 68.667969 55.773438 68.664062 56.3125 68.605469 56.847656 C 68.546875 57.386719 68.4375 57.914062 68.277344 58.429688 C 68.117188 58.945312 67.90625 59.4375 67.648438 59.914062 C 67.390625 60.386719 67.089844 60.832031 66.742188 61.246094 C 66.398438 61.660156 66.015625 62.039062 65.59375 62.378906 C 65.175781 62.71875 64.726562 63.011719 64.25 63.265625 C 63.769531 63.515625 63.273438 63.71875 62.757812 63.871094 Z M 62.757812 63.871094 " fill-opacity="1" fill-rule="nonzero"/><path fill="#000000" d="M 109.34375 94.246094 C 108.929688 94.023438 108.503906 93.820312 108.0625 93.644531 C 107.625 93.46875 107.179688 93.316406 106.722656 93.191406 C 106.265625 93.066406 105.804688 92.96875 105.339844 92.894531 C 104.871094 92.824219 104.402344 92.777344 103.929688 92.757812 C 103.457031 92.738281 102.988281 92.746094 102.515625 92.78125 C 102.042969 92.8125 101.574219 92.875 101.113281 92.960938 C 100.648438 93.050781 100.1875 93.164062 99.738281 93.304688 C 99.285156 93.441406 98.84375 93.609375 98.410156 93.796875 C 97.980469 93.988281 97.558594 94.203125 97.148438 94.441406 C 96.742188 94.679688 96.347656 94.9375 95.96875 95.222656 C 95.589844 95.503906 95.230469 95.808594 94.882812 96.132812 C 94.539062 96.457031 94.214844 96.800781 93.910156 97.160156 C 93.605469 97.523438 93.320312 97.898438 93.058594 98.292969 C 92.796875 98.6875 92.554688 99.09375 92.339844 99.511719 C 92.125 99.933594 91.929688 100.367188 91.765625 100.808594 C 91.597656 101.25 91.457031 101.703125 91.339844 102.160156 C 91.222656 102.617188 91.132812 103.082031 91.070312 103.550781 C 91.007812 104.019531 90.96875 104.492188 90.960938 104.964844 C 90.949219 105.4375 90.96875 105.910156 91.011719 106.382812 C 91.054688 106.851562 91.125 107.320312 91.222656 107.78125 C 91.320312 108.246094 91.441406 108.703125 91.589844 109.152344 C 91.738281 109.601562 91.914062 110.039062 92.113281 110.46875 C 92.3125 110.898438 92.535156 111.3125 92.78125 111.71875 C 93.023438 112.121094 93.292969 112.511719 93.582031 112.882812 C 93.875 113.257812 94.183594 113.613281 94.515625 113.953125 C 94.84375 114.289062 95.195312 114.609375 95.5625 114.90625 C 95.925781 115.207031 96.308594 115.480469 96.707031 115.738281 C 97.105469 115.992188 97.515625 116.222656 97.941406 116.429688 C 98.367188 116.640625 98.800781 116.820312 99.246094 116.980469 C 99.691406 117.140625 100.144531 117.273438 100.605469 117.378906 C 101.066406 117.484375 101.53125 117.566406 102 117.621094 C 102.46875 117.671875 102.941406 117.699219 103.414062 117.699219 C 104.636719 117.699219 105.835938 117.519531 107.007812 117.167969 C 108.1875 116.8125 109.289062 116.292969 110.3125 115.613281 C 111.335938 114.929688 112.242188 114.113281 113.023438 113.164062 C 113.808594 112.214844 114.4375 111.167969 114.914062 110.03125 C 115.386719 108.894531 115.6875 107.714844 115.8125 106.488281 C 115.9375 105.261719 115.882812 104.046875 115.644531 102.835938 C 115.410156 101.625 115.003906 100.476562 114.429688 99.386719 C 113.855469 98.296875 113.132812 97.316406 112.269531 96.441406 C 111.402344 95.566406 110.429688 94.835938 109.34375 94.246094 Z M 111.554688 109.613281 C 111.265625 110.148438 110.929688 110.648438 110.542969 111.117188 C 110.15625 111.582031 109.726562 112.007812 109.257812 112.390625 C 108.785156 112.773438 108.285156 113.109375 107.746094 113.390625 C 107.210938 113.675781 106.652344 113.90625 106.074219 114.078125 C 105.492188 114.253906 104.902344 114.367188 104.296875 114.425781 C 103.695312 114.484375 103.089844 114.480469 102.488281 114.417969 C 101.882812 114.355469 101.292969 114.238281 100.714844 114.058594 C 100.132812 113.878906 99.578125 113.648438 99.042969 113.359375 C 98.511719 113.070312 98.011719 112.734375 97.546875 112.347656 C 97.082031 111.960938 96.65625 111.53125 96.273438 111.0625 C 95.894531 110.589844 95.5625 110.085938 95.277344 109.550781 C 94.996094 109.015625 94.765625 108.457031 94.59375 107.878906 C 94.417969 107.296875 94.304688 106.707031 94.246094 106.101562 C 94.1875 105.5 94.191406 104.894531 94.25 104.292969 C 94.3125 103.691406 94.433594 103.097656 94.609375 102.519531 C 94.785156 101.941406 95.019531 101.382812 95.304688 100.847656 C 95.589844 100.316406 95.929688 99.8125 96.3125 99.347656 C 96.699219 98.878906 97.128906 98.453125 97.597656 98.070312 C 98.066406 97.6875 98.570312 97.351562 99.105469 97.066406 C 99.640625 96.785156 100.199219 96.554688 100.777344 96.378906 C 101.359375 96.207031 101.949219 96.089844 102.554688 96.03125 C 103.15625 95.976562 103.761719 95.976562 104.363281 96.039062 C 104.964844 96.101562 105.558594 96.21875 106.136719 96.398438 C 106.714844 96.574219 107.273438 96.808594 107.804688 97.097656 C 108.339844 97.382812 108.839844 97.722656 109.308594 98.109375 C 109.773438 98.496094 110.199219 98.921875 110.582031 99.394531 C 110.964844 99.863281 111.296875 100.367188 111.582031 100.902344 C 111.867188 101.4375 112.09375 101.996094 112.269531 102.578125 C 112.441406 103.160156 112.558594 103.75 112.617188 104.355469 C 112.675781 104.960938 112.671875 105.5625 112.609375 106.167969 C 112.550781 106.769531 112.429688 107.363281 112.25 107.941406 C 112.074219 108.523438 111.839844 109.078125 111.554688 109.613281 Z M 111.554688 109.613281 " fill-opacity="1" fill-rule="nonzero"/></g></g></g></svg>